HIERARCHY
ROOT Hips
{
    OFFSET 0.0 0.0 0.0
    CHANNELS 6 Xposition Yposition Zposition Zrotation Xrotation Yrotation
    JOINT LeftUpLeg
    {
        OFFSET 14.914444172928686 0.0 0.0
        CHANNELS 3 Zrotation Xrotation Yrotation
        JOINT LeftLeg
        {
            OFFSET 0.0 0.0 -62.23480464112955
            CHANNELS 3 Zrotation Xrotation Yrotation
            JOINT LeftFoot
            {
                OFFSET 0.0 0.0 -47.244263945611394
                CHANNELS 3 Zrotation Xrotation Yrotation
                JOINT LeftToeBase
                {
                    OFFSET 0.0 -12.447372256147808 0.0
                    CHANNELS 3 Zrotation Xrotation Yrotation
                    End Site
                    {
                        OFFSET 0 0 0
                    }
                }
            }
        }
    }
    JOINT RightUpLeg
    {
        OFFSET -14.914444172928686 0.0 0.0
        CHANNELS 3 Zrotation Xrotation Yrotation
        JOINT RightLeg
        {
            OFFSET 0.0 0.0 -62.23480464112955
            CHANNELS 3 Zrotation Xrotation Yrotation
            JOINT RightFoot
            {
                OFFSET 0.0 0.0 -47.244263945611394
                CHANNELS 3 Zrotation Xrotation Yrotation
                JOINT RightToeBase
                {
                    OFFSET 0.0 -12.447372256147808 0.0
                    CHANNELS 3 Zrotation Xrotation Yrotation
                    End Site
                    {
                        OFFSET 0 0 0
                    }
                }
            }
        }
    }
    JOINT Spine
    {
        OFFSET 0.0 0.0 12.116320855617609
        CHANNELS 3 Zrotation Xrotation Yrotation
        JOINT Spine1
        {
            OFFSET 0.0 0.0 11.736838152571186
            CHANNELS 3 Zrotation Xrotation Yrotation
            JOINT Spine2
            {
                OFFSET 0.0 0.0 11.736838152571186
                CHANNELS 3 Zrotation Xrotation Yrotation
                JOINT Spine3
                {
                    OFFSET 0.0 0.0 11.736838152571185
                    CHANNELS 3 Zrotation Xrotation Yrotation
                    JOINT Spine4
                    {
                        OFFSET 0.0 0.0 11.73683815257119
                        CHANNELS 3 Zrotation Xrotation Yrotation
                        JOINT RightShoulder
                        {
                            OFFSET -26.24963936158739 0.0 0.0
                            CHANNELS 3 Zrotation Xrotation Yrotation
                            JOINT RightArm
                            {
                                OFFSET -33.7530188519329 0.0 0.0
                                CHANNELS 3 Zrotation Xrotation Yrotation
                                JOINT RightForeArm
                                {
                                    OFFSET -34.92228197455531 0.0 0.0
                                    CHANNELS 3 Zrotation Xrotation Yrotation
                                    JOINT RightHand
                                    {
                                        OFFSET -11.705471932244086 0.0 0.0
                                        CHANNELS 3 Zrotation Xrotation Yrotation
                                        End Site
                                        {
                                            OFFSET 0 0 0
                                        }
                                    }
                                }
                            }
                        }
                        JOINT LeftShoulder
                        {
                            OFFSET 26.24963936158739 0.0 0.0
                            CHANNELS 3 Zrotation Xrotation Yrotation
                            JOINT LeftArm
                            {
                                OFFSET 33.7530188519329 0.0 0.0
                                CHANNELS 3 Zrotation Xrotation Yrotation
                                JOINT LeftForeArm
                                {
                                    OFFSET 34.92228197455531 0.0 0.0
                                    CHANNELS 3 Zrotation Xrotation Yrotation
                                    JOINT LeftHand
                                    {
                                        OFFSET 11.705471932244086 0.0 0.0
                                        CHANNELS 3 Zrotation Xrotation Yrotation
                                        End Site
                                        {
                                            OFFSET 0 0 0
                                        }
                                    }
                                }
                            }
                        }
                        JOINT Neck
                        {
                            OFFSET 0.0 0.0 11.736838161673857
                            CHANNELS 3 Zrotation Xrotation Yrotation
                            JOINT Head
                            {
                                OFFSET 0.0 0.0 26.225024798071487
                                CHANNELS 3 Zrotation Xrotation Yrotation
                                End Site
                                {
                                    OFFSET 0 0 0
                                }
                            }
                        }
                    }
                }
            }
        }
    }
}
MOTION
Frames: 6
Frame Time: 0.03333333333333333
53.72481193542481 4.886620929837227 387.7031427383423 88.45564655090882 -63.276596902008116 85.19673880694741 -11.726424242856401 5.958096217189359 -4.034763393713593 2.4806522641563324 -2.504602120125895 13.631798954871178 -58.31204759047124 1.2722218725854067e-14 38.94625833471259 0.0 0.0 0.0 27.083772852383422 17.29965997233508 -11.90739827020123 -13.3270305457687 -15.666424583050125 14.008381728126633 79.13921335611948 -3.1805546814635168e-15 -47.12186341885444 0.0 0.0 -7.951386703658792e-16 -0.26734440852031954 -2.069784203551279 -1.7631293905857859 0.0 0.0 0.0 0.0 0.0 0.0 0.0 0.0 0.0 0.0 0.0 0.0 -160.45384339616822 -54.84890033548297 177.56823202678217 143.15369585679076 1.0813736449800375e-14 7.79256638922705e-15 -180.0 38.87475741448508 -180.0 3.1805546814635168e-15 1.7655625192200634e-31 6.3611093629270335e-15 -140.10507527021326 -15.607743070635857 178.1594453860215 -39.93106384260881 -1.2774956962715363e-14 -1.14088732560396e-14 180.0 -37.44162130245804 -180.0 0.0 0.0 7.951386703658792e-16 1.7610136892410193 9.491661326160292e-15 -3.326807191177149e-15 0.0 0.0 0.0
53.885975146293646 4.793146674335003 388.62926330566415 88.13193383571144 -60.41769527867327 85.12958977693715 -10.4880063947325 4.024772113935819 -4.70556564901384 8.482312372643955 -8.443593378646343 20.691693124569362 -84.09305889071268 6.3611093629270335e-15 51.58249839501331 6.3611093629270335e-15 -3.531125038440127e-31 -6.3611093629270335e-15 29.30763578305642 19.13739787455237 -12.669797655683496 -24.637049964793526 -27.63398954439033 12.5264220762545 91.16998936876772 -6.3611093629270335e-15 -55.144416721161775 0.0 0.0 -7.951386703658792e-16 -0.3281379900446886 -2.6440568317998077 -1.6159124408664347 0.0 0.0 0.0 0.0 0.0 0.0 0.0 0.0 0.0 0.0 0.0 0.0 127.10029903288752 -86.0694343767599 100.84812239368794 103.94876076451695 -4.849429360682536e-16 -4.542995801609889e-15 180.0 10.297466898531413 180.0 0.0 0.0 0.0 -139.7940867746889 -16.926093633490723 178.58569549042144 -40.39876882701253 1.2559126751725736e-14 -1.571322559200582e-14 180.0 -36.65730901357506 180.0 0.0 0.0 -3.1805546814635164e-15 -0.13374221456342905 -2.3070142009361986e-14 9.514744883727655e-15 0.0 0.0 0.0
53.90906753540038 4.488402628898621 389.4671464920044 87.69140505369626 -60.16927593958667 84.95369905082323 -9.099311260217371 3.0702885726834688 -5.198407308006807 14.4319276553803 -13.972881435329889 29.024301394737964 -97.681965630279 1.5902773407317584e-14 67.96794622161907 0.0 0.0 0.0 31.400025051299444 21.120501939578702 -12.168196773716232 -41.999302743518385 -38.67638049057739 3.1181567202986704 106.58861636195414 -3.1805546814635168e-15 -61.21487724379033 0.0 0.0 1.5902773407317584e-15 -0.36825855910167943 -2.973653828307036 -1.548062558188588 0.0 0.0 0.0 0.0 0.0 0.0 0.0 0.0 0.0 0.0 0.0 0.0 58.6563158237688 -77.34135118243162 24.765582907392055 67.17907232979196 -5.506321198577068e-15 -3.979239717737516e-15 -180.0 -17.452609394601275 180.0 -6.3611093629270335e-15 -8.827812596100317e-32 1.5902773407317584e-15 -136.82230248591978 -17.987547766505028 179.08515692049252 -41.279603762936325 -4.4447533053268185e-15 -1.5269000297965604e-14 180.0 -40.25936533366693 180.0 0.0 0.0 3.1805546814635168e-15 -0.3045286629340447 3.1720910919446664e-15 3.1889958087091115e-15 0.0 0.0 0.0
53.73384060859679 3.8073818296194077 390.3161653518677 86.96376261333823 -61.255374106494486 84.5938910484401 -7.700614073229867 2.32763629833931 -5.661729895078759 19.988493362078355 -18.797415787532376 36.58279278244835 -105.41933269778208 -1.2722218725854067e-14 88.2123597774497 0.0 0.0 -3.1805546814635168e-15 34.63783758683191 23.72871910272375 -10.661386098744725 -65.55629256426364 -44.28194660314557 -16.466507725009023 126.13757680686614 -6.3611093629270335e-15 -65.32631746532505 0.0 0.0 2.782985346280577e-15 -0.4087444185678124 -3.289488053087107 -1.5159463456633768 0.0 3.975693351829396e-16 0.0 0.0 3.975693351829396e-16 0.0 0.0 3.975693351829396e-16 0.0 0.0 3.975693351829396e-16 0.0 19.247248034924464 -76.57976256727754 -23.251474046118375 59.68478268476503 -1.8966786056358725e-15 1.0881024305306701e-15 -3.248110972439937e-14 -64.15833123870833 -2.7866278396352528e-14 0.0 0.0 0.0 -131.75599559504118 -19.002869344594842 179.8300833366744 -41.58143357921989 4.404519966398288e-15 1.5280654629631743e-14 180.0 -44.25912270012676 180.0 -3.1805546814635176e-15 -3.1805546814635176e-15 -7.553817368475854e-15 0.3634763810723798 -1.1121796905903916e-14 3.215848358894484e-15 -3.1805546814635168e-15 0.0 0.0
53.401203274726875 2.809275631047785 391.0721042633057 86.13787316989648 -63.050721069778426 84.06682536351956 -7.033230509112504 2.343916028853985 -5.674403478539857 21.537753226723414 -20.148973590925138 37.33852325967553 -105.46563441437037 -3.1805546814635168e-15 90.74652580548948 0.0 0.0 0.0 37.48133174714433 25.94220097811286 -8.92148040980373 -81.70612696279468 -43.46623398924268 -32.23249129887062 140.9642927511718 -1.5902773407317584e-14 -69.82759591604875 0.0 0.0 -3.1805546814635168e-15 -0.429605439850555 -3.649219894292455 -1.5563267326523833 0.0 0.0 0.0 0.0 0.0 0.0 0.0 0.0 0.0 0.0 0.0 0.0 -13.07250325553927 -65.39301890041428 -63.86765929787638 70.41271225902717 1.9636013401371132e-14 2.507087489298224e-14 -2.2653614674253987e-14 -41.00017708195943 -4.2425798579940246e-14 0.0 -1.5902773407317584e-15 0.0 -126.35579821479648 -19.960173559581058 -179.04776720076146 -40.23967689391823 -6.564375403034625e-15 1.7918771903009868e-14 -180.0 -43.42531450525197 -180.0 -3.1805546814635168e-15 6.620859447075238e-32 -2.3854160110976376e-15 2.165533408455982 -1.9477418935566615e-14 3.681250486448423e-16 -3.1805546814635176e-15 -6.361109362927035e-15 -1.7655625192200634e-31
52.98896391391755 1.6450050087645651 391.75459384918213 85.1873184576937 -65.28684820596665 83.375470804569 -6.456637264709695 2.4487908818208153 -5.635815317579555 22.51586531094967 -20.993640109827776 36.7078318963413 -104.55386474120925 -3.1805546814635168e-15 90.55321554377122 0.0 0.0 0.0 39.74175132892673 27.780409796089558 -7.0964311865148355 -90.34044193041305 -40.734856138099474 -41.88137902135955 153.85887516396534 -7.951386703658792e-15 -70.14418908558883 0.0 0.0 0.0 -0.4281371432173515 -3.979291425617802 -1.6231312427915257 0.0 0.0 0.0 0.0 0.0 0.0 0.0 0.0 0.0 0.0 0.0 0.0 -18.96137775293109 -43.943111638649015 -76.61868809906596 90.75633094114053 -2.17472399156658e-15 1.1259557745472874e-14 -1.5686878425083673e-14 -34.680924954743055 -1.8226041504247212e-14 -1.7655625192200634e-31 -3.1805546814635168e-15 -6.3611093629270335e-15 -120.7283388427742 -20.33691341343237 -177.7083795826951 -37.995422367517946 0.0 -0.0 -180.0 -36.875752921590376 180.0 3.1805546814635168e-15 6.620859447075238e-32 2.3854160110976376e-15 4.125584004847648 9.09106627489695e-16 3.149872811201275e-15 0.0 0.0 0.0
